<?xml version="1.0" encoding="utf-8"?>
<svg version="1.1" id="resource-unknown" xmlns="http://www.w3.org/2000/svg" xmlns:xlink="http://www.w3.org/1999/xlink" x="0px"
	 y="0px" viewBox="0 0 500 500" style="enable-background:new 0 0 500 500;" xml:space="preserve">
<style type="text/css">
	.st1{fill:#FE7E01;}
</style>
<g
   id="g2">
	<path
   class="st1"
   d="M230.62,279.62c-1.17-8-0.59-14.96,1.75-20.88c2.33-5.91,5.5-11.12,9.5-15.62s8.12-8.71,12.38-12.62   c4.25-3.91,7.88-7.88,10.88-11.88s4.5-8.5,4.5-13.5c0-6.83-2-12.12-6-15.88s-9.67-5.62-17-5.62c-5.84,0-11.25,1.29-16.25,3.88   c-5,2.59-9.92,6.54-14.75,11.88l-20.5-19c7-8,15.16-14.41,24.5-19.25c9.33-4.83,19.75-7.25,31.25-7.25   c10.5,0,19.79,1.79,27.88,5.38c8.08,3.59,14.46,8.92,19.12,16c4.66,7.09,7,15.96,7,26.62c0,7.5-1.54,13.92-4.62,19.25   c-3.09,5.34-6.84,10.09-11.25,14.25c-4.42,4.17-8.75,8.29-13,12.38c-4.25,4.09-7.67,8.62-10.25,13.62   c-2.59,5-3.54,11.09-2.88,18.25H230.62z M246.88,346.12c-6.34,0-11.59-2.04-15.75-6.12c-4.17-4.08-6.25-9.38-6.25-15.88   c0-6.66,2.12-12.04,6.38-16.12c4.25-4.08,9.46-6.12,15.62-6.12c6.33,0,11.58,2.04,15.75,6.12c4.16,4.09,6.25,9.46,6.25,16.12   c0,6.5-2.09,11.79-6.25,15.88C258.46,344.08,253.21,346.12,246.88,346.12z"
   id="path2" />
</g>
</svg>
