<svg xmlns="http://www.w3.org/2000/svg" xmlns:xlink="http://www.w3.org/1999/xlink" width="5724" zoomAndPan="magnify" viewBox="0 0 4293 1727.999927" height="2304" preserveAspectRatio="xMidYMid meet" version="1.0"><defs><g/></defs><g fill="#ffffff" fill-opacity="1"><g transform="translate(148.410429, 1341.825663)"><g><path d="M 385.734375 -476.078125 C 389.398438 -470.316406 392.671875 -462.59375 395.546875 -452.90625 C 398.429688 -443.21875 399.875 -433.132812 399.875 -422.65625 C 399.875 -402.226562 395.550781 -387.691406 386.90625 -379.046875 C 378.269531 -370.410156 366.617188 -366.09375 351.953125 -366.09375 L 186.96875 -366.09375 L 186.96875 -277.3125 L 359.03125 -277.3125 C 363.21875 -271.550781 366.75 -263.957031 369.625 -254.53125 C 372.507812 -245.101562 373.953125 -235.15625 373.953125 -224.6875 C 373.953125 -204.78125 369.628906 -190.503906 360.984375 -181.859375 C 352.347656 -173.222656 340.695312 -168.90625 326.03125 -168.90625 L 188.546875 -168.90625 L 188.546875 -3.140625 C 182.785156 -1.566406 173.75 0 161.4375 1.5625 C 149.132812 3.132812 136.957031 3.921875 124.90625 3.921875 C 112.863281 3.921875 102.257812 3.003906 93.09375 1.171875 C 83.925781 -0.660156 76.195312 -3.929688 69.90625 -8.640625 C 63.625 -13.359375 58.910156 -19.90625 55.765625 -28.28125 C 52.628906 -36.664062 51.0625 -47.664062 51.0625 -61.28125 L 51.0625 -403.015625 C 51.0625 -425.535156 57.609375 -443.34375 70.703125 -456.4375 C 83.796875 -469.53125 101.601562 -476.078125 124.125 -476.078125 Z M 385.734375 -476.078125 "/></g></g></g><g fill="#ffffff" fill-opacity="1"><g transform="translate(565.564345, 1341.825663)"><g><path d="M 242.75 12.5625 C 211.851562 12.5625 183.179688 8.242188 156.734375 -0.390625 C 130.285156 -9.035156 107.238281 -22 87.59375 -39.28125 C 67.957031 -56.5625 52.507812 -78.296875 41.25 -104.484375 C 29.988281 -130.671875 24.359375 -161.3125 24.359375 -196.40625 C 24.359375 -230.96875 29.988281 -260.6875 41.25 -285.5625 C 52.507812 -310.445312 67.300781 -330.875 85.625 -346.84375 C 103.957031 -362.820312 124.90625 -374.609375 148.46875 -382.203125 C 172.039062 -389.796875 196.132812 -393.59375 220.75 -393.59375 C 248.507812 -393.59375 273.78125 -389.398438 296.5625 -381.015625 C 319.34375 -372.640625 338.984375 -361.117188 355.484375 -346.453125 C 371.984375 -331.785156 384.816406 -314.238281 393.984375 -293.8125 C 403.148438 -273.382812 407.734375 -251.128906 407.734375 -227.046875 C 407.734375 -209.234375 402.753906 -195.613281 392.796875 -186.1875 C 382.847656 -176.757812 368.972656 -170.738281 351.171875 -168.125 L 157.125 -139.046875 C 162.882812 -121.765625 174.664062 -108.800781 192.46875 -100.15625 C 210.28125 -91.519531 230.707031 -87.203125 253.75 -87.203125 C 275.226562 -87.203125 295.523438 -89.953125 314.640625 -95.453125 C 333.753906 -100.953125 349.332031 -107.367188 361.375 -114.703125 C 369.757812 -109.460938 376.832031 -102.128906 382.59375 -92.703125 C 388.351562 -83.273438 391.234375 -73.320312 391.234375 -62.84375 C 391.234375 -39.28125 380.234375 -21.738281 358.234375 -10.21875 C 341.472656 -1.3125 322.617188 4.707031 301.671875 7.84375 C 280.722656 10.988281 261.082031 12.5625 242.75 12.5625 Z M 220.75 -296.171875 C 208.1875 -296.171875 197.320312 -294.078125 188.15625 -289.890625 C 178.988281 -285.703125 171.523438 -280.332031 165.765625 -273.78125 C 160.003906 -267.238281 155.679688 -259.90625 152.796875 -251.78125 C 149.921875 -243.664062 148.21875 -235.421875 147.6875 -227.046875 L 282.03125 -249.03125 C 280.457031 -259.507812 274.695312 -269.984375 264.75 -280.453125 C 254.800781 -290.929688 240.132812 -296.171875 220.75 -296.171875 Z M 220.75 -296.171875 "/></g></g></g><g fill="#ffffff" fill-opacity="1"><g transform="translate(996.859048, 1341.825663)"><g><path d="M 24.359375 -190.90625 C 24.359375 -225.46875 29.59375 -255.445312 40.0625 -280.84375 C 50.539062 -306.25 65.078125 -327.332031 83.671875 -344.09375 C 102.265625 -360.851562 124 -373.289062 148.875 -381.40625 C 173.75 -389.53125 200.585938 -393.59375 229.390625 -393.59375 C 239.867188 -393.59375 250.082031 -392.675781 260.03125 -390.84375 C 269.988281 -389.007812 278.109375 -386.78125 284.390625 -384.15625 L 284.390625 -511.4375 C 289.628906 -513 298.007812 -514.695312 309.53125 -516.53125 C 321.050781 -518.363281 332.832031 -519.28125 344.875 -519.28125 C 356.40625 -519.28125 366.75 -518.492188 375.90625 -516.921875 C 385.070312 -515.359375 392.796875 -512.21875 399.078125 -507.5 C 405.367188 -502.789062 410.082031 -496.375 413.21875 -488.25 C 416.363281 -480.132812 417.9375 -469.53125 417.9375 -456.4375 L 417.9375 -84.0625 C 417.9375 -59.445312 406.414062 -39.804688 383.375 -25.140625 C 368.1875 -15.191406 348.546875 -6.421875 324.453125 1.171875 C 300.359375 8.765625 272.601562 12.5625 241.1875 12.5625 C 207.144531 12.5625 176.632812 7.847656 149.65625 -1.578125 C 122.6875 -11.003906 99.90625 -24.617188 81.3125 -42.421875 C 62.71875 -60.234375 48.578125 -81.578125 38.890625 -106.453125 C 29.203125 -131.328125 24.359375 -159.476562 24.359375 -190.90625 Z M 247.46875 -289.109375 C 219.1875 -289.109375 197.453125 -280.988281 182.265625 -264.75 C 167.078125 -248.507812 159.484375 -223.894531 159.484375 -190.90625 C 159.484375 -158.4375 166.550781 -133.953125 180.6875 -117.453125 C 194.832031 -100.953125 215.257812 -92.703125 241.96875 -92.703125 C 251.394531 -92.703125 259.90625 -94.140625 267.5 -97.015625 C 275.09375 -99.898438 280.984375 -103.175781 285.171875 -106.84375 L 285.171875 -279.671875 C 274.703125 -285.960938 262.132812 -289.109375 247.46875 -289.109375 Z M 247.46875 -289.109375 "/></g></g></g><g fill="#ffffff" fill-opacity="1"><g transform="translate(1457.220917, 1341.825663)"><g><path d="M 37.703125 -487.859375 C 37.703125 -507.765625 44.378906 -524.523438 57.734375 -538.140625 C 71.097656 -551.753906 88.773438 -558.5625 110.765625 -558.5625 C 132.765625 -558.5625 150.441406 -551.753906 163.796875 -538.140625 C 177.148438 -524.523438 183.828125 -507.765625 183.828125 -487.859375 C 183.828125 -467.960938 177.148438 -451.203125 163.796875 -437.578125 C 150.441406 -423.960938 132.765625 -417.15625 110.765625 -417.15625 C 88.773438 -417.15625 71.097656 -423.960938 57.734375 -437.578125 C 44.378906 -451.203125 37.703125 -467.960938 37.703125 -487.859375 Z M 177.546875 -0.78125 C 171.785156 0.257812 163.273438 1.695312 152.015625 3.53125 C 140.753906 5.363281 129.363281 6.28125 117.84375 6.28125 C 106.320312 6.28125 95.976562 5.492188 86.8125 3.921875 C 77.644531 2.359375 69.914062 -0.773438 63.625 -5.484375 C 57.34375 -10.203125 52.5 -16.617188 49.09375 -24.734375 C 45.695312 -32.859375 44 -43.46875 44 -56.5625 L 44 -376.3125 C 49.757812 -377.351562 58.269531 -378.789062 69.53125 -380.625 C 80.789062 -382.457031 92.179688 -383.375 103.703125 -383.375 C 115.222656 -383.375 125.566406 -382.585938 134.734375 -381.015625 C 143.898438 -379.441406 151.625 -376.296875 157.90625 -371.578125 C 164.1875 -366.867188 169.03125 -360.457031 172.4375 -352.34375 C 175.84375 -344.226562 177.546875 -333.625 177.546875 -320.53125 Z M 177.546875 -0.78125 "/></g></g></g><g fill="#ffffff" fill-opacity="1"><g transform="translate(1678.760291, 1341.825663)"><g><path d="M 174.40625 -0.78125 C 169.164062 0.789062 160.914062 2.359375 149.65625 3.921875 C 138.394531 5.492188 126.742188 6.28125 114.703125 6.28125 C 103.179688 6.28125 92.835938 5.492188 83.671875 3.921875 C 74.503906 2.359375 66.773438 -0.773438 60.484375 -5.484375 C 54.203125 -10.203125 49.359375 -16.617188 45.953125 -24.734375 C 42.554688 -32.859375 40.859375 -43.46875 40.859375 -56.5625 L 40.859375 -292.25 C 40.859375 -304.289062 43.082031 -314.628906 47.53125 -323.265625 C 51.976562 -331.910156 58.394531 -339.640625 66.78125 -346.453125 C 75.15625 -353.265625 85.492188 -359.421875 97.796875 -364.921875 C 110.109375 -370.421875 123.332031 -375.265625 137.46875 -379.453125 C 151.613281 -383.640625 166.28125 -386.910156 181.46875 -389.265625 C 196.664062 -391.628906 211.859375 -392.8125 227.046875 -392.8125 C 252.179688 -392.8125 272.082031 -387.960938 286.75 -378.265625 C 301.414062 -368.578125 308.75 -352.734375 308.75 -330.734375 C 308.75 -323.410156 307.695312 -316.210938 305.59375 -309.140625 C 303.5 -302.066406 300.882812 -295.648438 297.75 -289.890625 C 286.75 -289.890625 275.488281 -289.363281 263.96875 -288.3125 C 252.445312 -287.269531 241.1875 -285.703125 230.1875 -283.609375 C 219.1875 -281.515625 208.84375 -279.285156 199.15625 -276.921875 C 189.46875 -274.566406 181.21875 -271.816406 174.40625 -268.671875 Z M 174.40625 -0.78125 "/></g></g></g><g fill="#ffffff" fill-opacity="1"><g transform="translate(2001.642058, 1341.825663)"><g><path d="M 242.75 12.5625 C 211.851562 12.5625 183.179688 8.242188 156.734375 -0.390625 C 130.285156 -9.035156 107.238281 -22 87.59375 -39.28125 C 67.957031 -56.5625 52.507812 -78.296875 41.25 -104.484375 C 29.988281 -130.671875 24.359375 -161.3125 24.359375 -196.40625 C 24.359375 -230.96875 29.988281 -260.6875 41.25 -285.5625 C 52.507812 -310.445312 67.300781 -330.875 85.625 -346.84375 C 103.957031 -362.820312 124.90625 -374.609375 148.46875 -382.203125 C 172.039062 -389.796875 196.132812 -393.59375 220.75 -393.59375 C 248.507812 -393.59375 273.78125 -389.398438 296.5625 -381.015625 C 319.34375 -372.640625 338.984375 -361.117188 355.484375 -346.453125 C 371.984375 -331.785156 384.816406 -314.238281 393.984375 -293.8125 C 403.148438 -273.382812 407.734375 -251.128906 407.734375 -227.046875 C 407.734375 -209.234375 402.753906 -195.613281 392.796875 -186.1875 C 382.847656 -176.757812 368.972656 -170.738281 351.171875 -168.125 L 157.125 -139.046875 C 162.882812 -121.765625 174.664062 -108.800781 192.46875 -100.15625 C 210.28125 -91.519531 230.707031 -87.203125 253.75 -87.203125 C 275.226562 -87.203125 295.523438 -89.953125 314.640625 -95.453125 C 333.753906 -100.953125 349.332031 -107.367188 361.375 -114.703125 C 369.757812 -109.460938 376.832031 -102.128906 382.59375 -92.703125 C 388.351562 -83.273438 391.234375 -73.320312 391.234375 -62.84375 C 391.234375 -39.28125 380.234375 -21.738281 358.234375 -10.21875 C 341.472656 -1.3125 322.617188 4.707031 301.671875 7.84375 C 280.722656 10.988281 261.082031 12.5625 242.75 12.5625 Z M 220.75 -296.171875 C 208.1875 -296.171875 197.320312 -294.078125 188.15625 -289.890625 C 178.988281 -285.703125 171.523438 -280.332031 165.765625 -273.78125 C 160.003906 -267.238281 155.679688 -259.90625 152.796875 -251.78125 C 149.921875 -243.664062 148.21875 -235.421875 147.6875 -227.046875 L 282.03125 -249.03125 C 280.457031 -259.507812 274.695312 -269.984375 264.75 -280.453125 C 254.800781 -290.929688 240.132812 -296.171875 220.75 -296.171875 Z M 220.75 -296.171875 "/></g></g></g><g fill="#ffffff" fill-opacity="1"><g transform="translate(2432.936646, 1341.825663)"><g><path d="M 24.359375 -190.90625 C 24.359375 -225.46875 29.59375 -255.445312 40.0625 -280.84375 C 50.539062 -306.25 65.078125 -327.332031 83.671875 -344.09375 C 102.265625 -360.851562 124 -373.289062 148.875 -381.40625 C 173.75 -389.53125 200.585938 -393.59375 229.390625 -393.59375 C 239.867188 -393.59375 250.082031 -392.675781 260.03125 -390.84375 C 269.988281 -389.007812 278.109375 -386.78125 284.390625 -384.15625 L 284.390625 -511.4375 C 289.628906 -513 298.007812 -514.695312 309.53125 -516.53125 C 321.050781 -518.363281 332.832031 -519.28125 344.875 -519.28125 C 356.40625 -519.28125 366.75 -518.492188 375.90625 -516.921875 C 385.070312 -515.359375 392.796875 -512.21875 399.078125 -507.5 C 405.367188 -502.789062 410.082031 -496.375 413.21875 -488.25 C 416.363281 -480.132812 417.9375 -469.53125 417.9375 -456.4375 L 417.9375 -84.0625 C 417.9375 -59.445312 406.414062 -39.804688 383.375 -25.140625 C 368.1875 -15.191406 348.546875 -6.421875 324.453125 1.171875 C 300.359375 8.765625 272.601562 12.5625 241.1875 12.5625 C 207.144531 12.5625 176.632812 7.847656 149.65625 -1.578125 C 122.6875 -11.003906 99.90625 -24.617188 81.3125 -42.421875 C 62.71875 -60.234375 48.578125 -81.578125 38.890625 -106.453125 C 29.203125 -131.328125 24.359375 -159.476562 24.359375 -190.90625 Z M 247.46875 -289.109375 C 219.1875 -289.109375 197.453125 -280.988281 182.265625 -264.75 C 167.078125 -248.507812 159.484375 -223.894531 159.484375 -190.90625 C 159.484375 -158.4375 166.550781 -133.953125 180.6875 -117.453125 C 194.832031 -100.953125 215.257812 -92.703125 241.96875 -92.703125 C 251.394531 -92.703125 259.90625 -94.140625 267.5 -97.015625 C 275.09375 -99.898438 280.984375 -103.175781 285.171875 -106.84375 L 285.171875 -279.671875 C 274.703125 -285.960938 262.132812 -289.109375 247.46875 -289.109375 Z M 247.46875 -289.109375 "/></g></g></g><path fill="#ffffff" d="M 3498.105469 213.691406 C 3180.679688 253.050781 2944.523438 517.832031 2944.523438 833.726562 C 2944.523438 960.492188 2975.195312 1089.816406 3032.441406 1201.757812 L 3058 1251.851562 L 3047.777344 1263.097656 C 3026.820312 1286.101562 3020.175781 1307.570312 3022.21875 1342.839844 C 3024.265625 1380.664062 3034.488281 1400.089844 3065.667969 1424.113281 L 3084.070312 1437.914062 L 4046.578125 1437.914062 L 4064.980469 1425.644531 C 4117.628906 1389.355469 4128.875 1315.234375 4089.003906 1269.230469 L 4073.671875 1251.851562 L 4088.492188 1222.207031 C 4111.496094 1176.710938 4145.742188 1079.59375 4145.742188 1060.167969 C 4145.742188 1038.1875 4125.808594 1013.140625 4104.339844 1008.542969 C 4090.539062 1005.476562 4089.003906 1003.429688 4092.070312 991.671875 C 4129.386719 845.484375 4117.117188 718.203125 4053.734375 589.394531 C 4015.910156 512.207031 3944.347656 428.890625 3879.941406 386.976562 C 3867.671875 378.796875 3867.671875 378.285156 3876.363281 368.0625 C 3889.652344 353.238281 3892.71875 325.636719 3883.007812 306.722656 C 3873.808594 289.34375 3840.582031 269.917969 3779.753906 246.917969 C 3705.125 218.804688 3577.847656 203.980469 3498.105469 213.691406 Z M 3706.660156 286.789062 C 3733.75 293.945312 3772.085938 307.234375 3792.023438 316.945312 L 3828.824219 333.816406 L 3674.96875 534.1875 L 3520.597656 734.5625 L 3499.640625 723.316406 C 3482.773438 714.625 3469.992188 712.070312 3435.234375 712.070312 C 3395.363281 712.070312 3389.230469 713.605469 3359.582031 729.449219 C 3304.378906 759.609375 3274.730469 808.679688 3275.242188 871.039062 C 3275.753906 916.535156 3289.042969 948.738281 3321.246094 981.449219 C 3354.472656 1015.1875 3387.1875 1028.988281 3435.234375 1028.476562 C 3482.773438 1028.476562 3520.597656 1012.121094 3551.777344 978.382812 L 3572.734375 955.382812 L 3828.824219 1010.074219 L 4084.914062 1064.769531 L 4081.847656 1077.546875 C 4075.203125 1103.617188 4037.378906 1194.601562 4026.644531 1211.472656 L 4014.886719 1228.339844 L 3572.734375 1229.875 C 3058.511719 1231.40625 3118.316406 1239.074219 3080.492188 1163.421875 C 3054.933594 1111.285156 3037.042969 1058.125 3020.6875 988.09375 C 3007.394531 928.289062 3001.773438 802.035156 3010.972656 746.316406 C 3033.976562 601.660156 3113.207031 471.828125 3232.304688 381.863281 C 3300.800781 330.238281 3399.453125 288.320312 3482.261719 275.542969 C 3538.488281 266.851562 3650.941406 272.476562 3706.660156 286.789062 Z M 3864.097656 450.871094 C 3933.101562 504.03125 3993.929688 586.324219 4023.066406 667.089844 C 4058.847656 765.742188 4063.445312 880.242188 4035.332031 966.628906 C 4026.132812 994.742188 4014.886719 996.273438 4016.933594 969.695312 L 4017.953125 951.804688 L 3866.140625 919.089844 C 3782.3125 901.199219 3699.503906 883.308594 3682.125 879.730469 L 3650.941406 872.574219 L 3647.363281 845.992188 C 3645.320312 831.171875 3639.1875 808.167969 3634.074219 794.367188 L 3624.875 769.320312 L 3737.328125 621.085938 L 3849.273438 472.339844 L 3836.492188 459.046875 C 3828.316406 450.359375 3824.738281 442.179688 3826.78125 437.066406 C 3828.316406 431.957031 3830.871094 428.378906 3832.402344 428.378906 C 3833.425781 428.378906 3847.738281 438.601562 3864.097656 450.871094 Z M 3480.214844 780.566406 C 3547.6875 814.8125 3552.800781 909.886719 3489.929688 953.335938 C 3472.550781 965.605469 3464.371094 967.648438 3434.722656 967.648438 C 3404.566406 967.648438 3397.410156 965.605469 3378.496094 952.316406 C 3297.734375 895.066406 3335.046875 771.875 3434.210938 770.855469 C 3451.082031 770.855469 3468.460938 774.433594 3480.214844 780.566406 Z M 4038.398438 1302.457031 C 4059.359375 1323.414062 4057.824219 1357.664062 4035.332031 1372.484375 C 4023.066406 1380.664062 3994.953125 1381.175781 3670.878906 1379.640625 C 3478.171875 1379.132812 3319.714844 1377.597656 3319.203125 1377.085938 C 3318.691406 1376.574219 3315.625 1365.839844 3312.046875 1353.574219 C 3306.933594 1334.148438 3307.445312 1327.503906 3314.089844 1311.148438 L 3322.269531 1292.234375 L 3674.96875 1292.234375 C 4020 1292.234375 4028.175781 1292.234375 4038.398438 1302.457031 Z M 4038.398438 1302.457031 " fill-opacity="1" fill-rule="nonzero"/><path fill="#ffffff" d="M 3545.132812 324.613281 C 3494.019531 327.679688 3439.324219 337.902344 3429.101562 346.59375 C 3418.878906 354.773438 3418.367188 357.328125 3423.988281 369.59375 C 3430.125 382.886719 3431.65625 383.398438 3454.660156 379.820312 C 3467.949219 377.773438 3501.175781 373.683594 3528.265625 370.105469 C 3581.425781 363.972656 3590.625 359.371094 3587.558594 341.480469 C 3585.515625 327.679688 3573.246094 323.082031 3545.132812 324.613281 Z M 3545.132812 324.613281 " fill-opacity="1" fill-rule="nonzero"/><path fill="#ffffff" d="M 3304.890625 397.199219 C 3219.015625 450.359375 3145.917969 529.585938 3111.160156 606.773438 C 3099.40625 631.820312 3103.492188 644.597656 3124.453125 647.152344 C 3135.1875 648.6875 3140.296875 642.554688 3164.320312 602.171875 C 3209.304688 526.007812 3266.042969 470.292969 3344.761719 425.3125 C 3379.519531 405.375 3387.1875 392.597656 3372.875 378.285156 C 3362.140625 367.550781 3346.292969 371.640625 3304.890625 397.199219 Z M 3304.890625 397.199219 " fill-opacity="1" fill-rule="nonzero"/><path fill="#ffffff" d="M 3411.722656 818.902344 C 3390.765625 828.101562 3379.007812 845.484375 3379.007812 866.953125 C 3379.007812 921.132812 3435.746094 945.160156 3474.082031 906.820312 C 3486.351562 894.554688 3491.460938 884.84375 3491.460938 873.597656 C 3491.460938 849.570312 3477.660156 827.082031 3458.238281 818.902344 C 3436.769531 810.214844 3432.167969 810.214844 3411.722656 818.902344 Z M 3411.722656 818.902344 " fill-opacity="1" fill-rule="nonzero"/></svg>
